<svg width="85" height="85" viewBox="0 0 85 85" fill="none" xmlns="http://www.w3.org/2000/svg">
<path d="M0.385757 84.8462L6.33193 63.1354C2.66454 56.7818 0.735073 49.5734 0.737425 42.1891C0.746824 19.0873 19.547 0.292694 42.6495 0.292694C53.8605 0.298163 64.3831 4.66108 72.2972 12.5807C80.209 20.5003 84.5656 31.0268 84.5616 42.2229C84.5514 65.3231 65.7482 84.1209 42.6495 84.1209C42.6478 84.1209 42.6512 84.1209 42.6495 84.1209H42.6315C35.6177 84.118 28.7257 82.3586 22.6037 79.0201L0.385757 84.8462Z" fill="white"/>
<path d="M42.663 7.36996C23.4476 7.36996 7.82106 22.9909 7.814 42.1913C7.81115 48.771 9.6525 55.1795 13.1394 60.7246L13.9683 62.0419L10.4483 74.8918L23.6329 71.4348L24.906 72.1892C30.2533 75.3629 36.3839 77.041 42.6362 77.0442H42.6495C61.8499 77.0442 77.4765 61.4216 77.4843 42.2196C77.4877 32.9145 73.8681 24.1644 67.2908 17.5824C60.7135 11.0004 51.9681 7.37389 42.663 7.36996Z" fill="url(#paint0_linear_3_3)"/>
<path fill-rule="evenodd" clip-rule="evenodd" d="M32.1749 24.6732C31.3899 22.9298 30.5641 22.8944 29.8184 22.8638C29.2077 22.8379 28.5091 22.8395 27.8112 22.8395C27.1126 22.8395 25.9783 23.1017 25.0191 24.1496C24.059 25.1976 21.3532 27.7307 21.3532 32.8832C21.3532 38.0358 25.1062 43.0141 25.629 43.7135C26.1526 44.4122 32.8735 55.3233 43.5185 59.5206C52.3644 63.009 54.1643 62.3151 56.0852 62.1408C58.0052 61.9665 62.281 59.6077 63.1531 57.1625C64.026 54.7173 64.026 52.6222 63.7646 52.1842C63.5024 51.747 62.8046 51.4856 61.7566 50.962C60.7095 50.4384 55.5608 47.9045 54.6008 47.5552C53.6408 47.2059 52.9429 47.0316 52.2443 48.0796C51.5465 49.1275 49.5408 51.4856 48.9294 52.1842C48.3186 52.8836 47.7079 52.9707 46.66 52.4472C45.6128 51.922 42.2398 50.8176 38.2388 47.2498C35.1256 44.4742 33.0242 41.0462 32.4127 39.9982C31.802 38.9503 32.3476 38.3836 32.8727 37.8616C33.3429 37.3921 33.9199 36.6386 34.4442 36.0271C34.9663 35.4156 35.1413 34.9791 35.4898 34.2813C35.8391 33.5819 35.6649 32.9704 35.4027 32.4468C35.1413 31.9232 33.1059 26.744 32.1749 24.6732Z" fill="white"/>
<defs>
<linearGradient id="paint0_linear_3_3" x1="41.9399" y1="11.5512" x2="42.2933" y2="71.0918" gradientUnits="userSpaceOnUse">
<stop stop-color="#57D163"/>
<stop offset="1" stop-color="#23B33A"/>
</linearGradient>
</defs>
</svg>
